<svg xmlns="http://www.w3.org/2000/svg" width="1740.08" height="1084.013" viewBox="0 0 1740.08 1084.013">
  <g id="Group_116" data-name="Group 116" transform="translate(-184.886 4.013)">
    <path id="Path_35" data-name="Path 35" d="M6364,1075s-10.8-196.969,177.959-190.722,348.687-87.784,365.313-216.352,158.12-400.574,401.257-370.868S7715.756-9.013,7715.756-9.013h388.21V1075Z" transform="translate(-6179 5)"/>
    <g id="Group_115" data-name="Group 115">
      <g id="Ellipse_18" data-name="Ellipse 18" transform="translate(1639 286)" fill="#fff" stroke="#707070" stroke-width="1">
        <circle cx="5.5" cy="5.5" r="5.5" stroke="none"/>
        <circle cx="5.5" cy="5.5" r="5" fill="none"/>
      </g>
      <g id="Ellipse_19" data-name="Ellipse 19" transform="translate(1458 538)" fill="#fff" stroke="#707070" stroke-width="1">
        <circle cx="5.5" cy="5.5" r="5.5" stroke="none"/>
        <circle cx="5.5" cy="5.5" r="5" fill="none"/>
      </g>
      <g id="Ellipse_20" data-name="Ellipse 20" transform="translate(1791 635)" fill="#fff" stroke="#707070" stroke-width="1">
        <circle cx="5" cy="5" r="5" stroke="none"/>
        <circle cx="5" cy="5" r="4.5" fill="none"/>
      </g>
      <g id="Ellipse_21" data-name="Ellipse 21" transform="translate(1086 953)" fill="#fff" stroke="#707070" stroke-width="1">
        <circle cx="13" cy="13" r="13" stroke="none"/>
        <circle cx="13" cy="13" r="12.5" fill="none"/>
      </g>
      <g id="Ellipse_22" data-name="Ellipse 22" transform="translate(1534 960)" fill="#fff" stroke="#707070" stroke-width="1">
        <circle cx="9.5" cy="9.5" r="9.5" stroke="none"/>
        <circle cx="9.5" cy="9.5" r="9" fill="none"/>
      </g>
    </g>
  </g>
</svg>
